<?xml version="1.0" encoding="UTF-8"?>
<svg width="16px" height="15px" viewBox="0 0 16 15" version="1.1" xmlns="http://www.w3.org/2000/svg" xmlns:xlink="http://www.w3.org/1999/xlink">
    <g stroke="none" stroke-width="1" fill="none" fill-rule="evenodd">
        <g fill-rule="nonzero">
            <polygon fill="#888888" points="0 3 0 15 12.69 15 12.69 4.81 5.08 4.81 3.95 3"></polygon>
            <g transform="translate(3.000000, 0.000000)">
                <path d="M11,2.62500165 L11,10.8750005 C11,11.4960969 10.4721014,12 9.8214289,12 L1.1785711,12 C0.527898569,12 -8.8817842e-16,11.4960969 -8.8817842e-16,10.8750005 L-8.8817842e-16,2.62500165 C-8.8817842e-16,2.00390527 0.527898569,1.5 1.1785711,1.5 L2.3571422,1.5 L2.3571422,0.281249863 C2.3571422,0.126562438 2.48973145,0 2.65178497,0 L3.63393063,0 C3.79598415,0 3.9285734,0.126562438 3.9285734,0.281249863 L3.9285734,1.5 L7.0714266,1.5 L7.0714266,0.281249863 C7.0714266,0.126562438 7.20401585,0 7.36606937,0 L8.34821503,0 C8.51026855,0 8.6428578,0.126562438 8.6428578,0.281249863 L8.6428578,1.5 L9.8214289,1.5 C10.4721014,1.5 11,2.00390527 11,2.62500165 Z" id="Shape" fill="#FF8700"></path>
                <path d="M3.63393063,5.74999451 L2.65178497,5.74999451 C2.48973145,5.74999451 2.3571422,5.62343427 2.3571422,5.46874684 L2.3571422,4.53124437 C2.3571422,4.37655695 2.48973145,4.24999451 2.65178497,4.24999451 L3.63393063,4.24999451 C3.79598415,4.24999451 3.9285734,4.37655695 3.9285734,4.53124437 L3.9285734,5.46874684 C3.9285734,5.62343427 3.79598415,5.74999451 3.63393063,5.74999451 L3.63393063,5.74999451 Z" id="Path" fill="#FFFFFF"></path>
                <path d="M6.2857156,5.46874684 L6.2857156,4.53124437 C6.2857156,4.37655695 6.15312635,4.24999451 5.99107283,4.24999451 L5.00892717,4.24999451 C4.84687365,4.24999451 4.7142844,4.37655695 4.7142844,4.53124437 L4.7142844,5.46874684 C4.7142844,5.62343427 4.84687365,5.74999451 5.00892717,5.74999451 L5.99107283,5.74999451 C6.15312635,5.74999451 6.2857156,5.62343427 6.2857156,5.46874684 Z" id="Path" fill="#FFFFFF"></path>
                <path d="M8.6428578,5.46874684 L8.6428578,4.53124437 C8.6428578,4.37655695 8.51026855,4.24999451 8.34821503,4.24999451 L7.36606937,4.24999451 C7.20401585,4.24999451 7.0714266,4.37655695 7.0714266,4.53124437 L7.0714266,5.46874684 C7.0714266,5.62343427 7.20401585,5.74999451 7.36606937,5.74999451 L8.34821503,5.74999451 C8.51026855,5.74999451 8.6428578,5.62343427 8.6428578,5.46874684 Z" id="Path" fill="#FFFFFF"></path>
                <path d="M6.2857156,7.71874574 L6.2857156,6.78124327 C6.2857156,6.62655585 6.15312635,6.49999341 5.99107283,6.49999341 L5.00892717,6.49999341 C4.84687365,6.49999341 4.7142844,6.62655585 4.7142844,6.78124327 L4.7142844,7.71874574 C4.7142844,7.87343317 4.84687365,7.99999341 5.00892717,7.99999341 L5.99107283,7.99999341 C6.15312635,7.99999341 6.2857156,7.87343317 6.2857156,7.71874574 Z" id="Path" fill="#FFFFFF"></path>
                <path d="M3.9285734,7.71874574 L3.9285734,6.78124327 C3.9285734,6.62655585 3.79598415,6.49999341 3.63393063,6.49999341 L2.65178497,6.49999341 C2.48973145,6.49999341 2.3571422,6.62655585 2.3571422,6.78124327 L2.3571422,7.71874574 C2.3571422,7.87343317 2.48973145,7.99999341 2.65178497,7.99999341 L3.63393063,7.99999341 C3.79598415,7.99999341 3.9285734,7.87343317 3.9285734,7.71874574 L3.9285734,7.71874574 Z" id="Path" fill="#FFFFFF"></path>
                <path d="M8.6428578,7.71874574 L8.6428578,6.78124327 C8.6428578,6.62655585 8.51026855,6.49999341 8.34821503,6.49999341 L7.36606937,6.49999341 C7.20401585,6.49999341 7.0714266,6.62655585 7.0714266,6.78124327 L7.0714266,7.71874574 C7.0714266,7.87343317 7.20401585,7.99999341 7.36606937,7.99999341 L8.34821503,7.99999341 C8.51026855,7.99999341 8.6428578,7.87343317 8.6428578,7.71874574 Z" id="Path" fill="#FFFFFF"></path>
            </g>
            <polygon fill="#AAAAAA" points="8.26 7.08 6.55 8.4 2.53 8.4 0 15 12.96 15 16 7.08"></polygon>
        </g>
    </g>
</svg>