<?xml version="1.0" encoding="utf-8"?>
<svg class="typo3-icons-actions" style="display: none;" xmlns="http://www.w3.org/2000/svg" xmlns:xlink="http://www.w3.org/1999/xlink">
    <symbol viewBox="0 0 96 96" xmlns="http://www.w3.org/2000/svg" id="ext-sfeventmgt-event">
        <g id="Page-1" stroke="none" stroke-width="1" fill="none" fill-rule="evenodd">
            <g id="Event" fill="currentColor" fill-rule="nonzero">
                <g id="Calendar" transform="translate(6.000000, 0.000000)">
                    <path d="M27.7500157,53.9999736 L20.2499943,53.9999736 C19.0124947,53.9999736 17.999995,52.9874741 17.999995,51.7499747 L17.999995,44.249955 C17.999995,43.0124556 19.0124947,41.9999561 20.2499943,41.9999561 L27.7500157,41.9999561 C28.9875153,41.9999561 30.0000151,43.0124556 30.0000151,44.249955 L30.0000151,51.7499747 C30.0000151,52.9874741 28.9875153,53.9999736 27.7500157,53.9999736 Z M48.00001,51.7499747 L48.00001,44.249955 C48.00001,43.0124556 46.9875103,41.9999561 45.7500107,41.9999561 L38.2499893,41.9999561 C37.0124897,41.9999561 35.99999,43.0124556 35.99999,44.249955 L35.99999,51.7499747 C35.99999,52.9874741 37.0124897,53.9999736 38.2499893,53.9999736 L45.7500107,53.9999736 C46.9875103,53.9999736 48.00001,52.9874741 48.00001,51.7499747 Z M66.000005,51.7499747 L66.000005,44.249955 C66.000005,43.0124556 64.9875053,41.9999561 63.7500057,41.9999561 L56.2499843,41.9999561 C55.0124847,41.9999561 53.9999849,43.0124556 53.9999849,44.249955 L53.9999849,51.7499747 C53.9999849,52.9874741 55.0124847,53.9999736 56.2499843,53.9999736 L63.7500057,53.9999736 C64.9875053,53.9999736 66.000005,52.9874741 66.000005,51.7499747 Z M48.00001,69.7499659 L48.00001,62.2499462 C48.00001,61.0124468 46.9875103,59.9999473 45.7500107,59.9999473 L38.2499893,59.9999473 C37.0124897,59.9999473 35.99999,61.0124468 35.99999,62.2499462 L35.99999,69.7499659 C35.99999,70.9874653 37.0124897,71.9999648 38.2499893,71.9999648 L45.7500107,71.9999648 C46.9875103,71.9999648 48.00001,70.9874653 48.00001,69.7499659 Z M30.0000151,69.7499659 L30.0000151,62.2499462 C30.0000151,61.0124468 28.9875153,59.9999473 27.7500157,59.9999473 L20.2499943,59.9999473 C19.0124947,59.9999473 17.999995,61.0124468 17.999995,62.2499462 L17.999995,69.7499659 C17.999995,70.9874653 19.0124947,71.9999648 20.2499943,71.9999648 L27.7500157,71.9999648 C28.9875153,71.9999648 30.0000151,70.9874653 30.0000151,69.7499659 Z M66.000005,69.7499659 L66.000005,62.2499462 C66.000005,61.0124468 64.9875053,59.9999473 63.7500057,59.9999473 L56.2499843,59.9999473 C55.0124847,59.9999473 53.9999849,61.0124468 53.9999849,62.2499462 L53.9999849,69.7499659 C53.9999849,70.9874653 55.0124847,71.9999648 56.2499843,71.9999648 L63.7500057,71.9999648 C64.9875053,71.9999648 66.000005,70.9874653 66.000005,69.7499659 Z M84,21.0000132 L84,87.0000044 C84,91.9687754 79.9687746,96 75.0000025,96 L8.99999749,96 C4.03122544,96 0,91.9687754 0,87.0000044 L0,21.0000132 C0,16.0312422 4.03122544,12.0000176 8.99999749,12.0000176 L17.999995,12.0000176 L17.999995,2.2499989 C17.999995,1.01249951 19.0124947,0 20.2499943,0 L27.7500157,0 C28.9875153,0 30.0000151,1.01249951 30.0000151,2.2499989 L30.0000151,12.0000176 L53.9999849,12.0000176 L53.9999849,2.2499989 C53.9999849,1.01249951 55.0124847,0 56.2499843,0 L63.7500057,0 C64.9875053,0 66.000005,1.01249951 66.000005,2.2499989 L66.000005,12.0000176 L75.0000025,12.0000176 C79.9687746,12.0000176 84,16.0312422 84,21.0000132 Z M75.0000025,85.8750049 L75.0000025,30.0000088 L8.99999749,30.0000088 L8.99999749,85.8750049 C8.99999749,86.4937546 9.50624735,87.0000044 10.1249972,87.0000044 L73.8750028,87.0000044 C74.4937527,87.0000044 75.0000025,86.4937546 75.0000025,85.8750049 Z" id="Shape"></path>
                </g>
            </g>
        </g>
    </symbol>
    <symbol viewBox="0 0 96 96" xmlns="http://www.w3.org/2000/svg" id="ext-sfeventmgt-action-handle-expired">
        <g id="Handle-Expired-Registrations" stroke="none" stroke-width="1" fill="none" fill-rule="evenodd">
            <g id="bolt" transform="translate(27.000000, 10.000000)" fill="currentColor" fill-rule="nonzero">
                <path d="M40.4966518,20.0424107 C41,20.5915179 41.1372768,21.3694196 40.8169643,22.0558036 L16.1071429,74.9988839 C15.7410714,75.6852679 15.0089286,76.1428571 14.1852679,76.1428571 C14.0022321,76.1428571 13.7734375,76.0970982 13.5446429,76.0513393 C12.5379464,75.7310268 11.9430804,74.7700893 12.171875,73.8091518 L21.1863839,36.8359375 L2.60825893,41.4575893 C2.42522321,41.5033482 2.2421875,41.5033482 2.05915179,41.5033482 C1.55580357,41.5033482 1.00669643,41.3203125 0.640625,41 C0.0915178571,40.5424107 -0.0915178571,39.8560268 0.0457589286,39.2154018 L9.24330357,1.46428571 C9.47209821,0.594866071 10.2957589,0 11.2566964,0 L26.265625,0 C27.4095982,0 28.3247768,0.869419643 28.3247768,1.921875 C28.3247768,2.19642857 28.2332589,2.47098214 28.0959821,2.74553571 L20.2712054,23.9319196 L38.3917411,19.4475446 C38.5747768,19.4017857 38.7578125,19.3560268 38.9408482,19.3560268 C39.5357143,19.3560268 40.0848214,19.6305804 40.4966518,20.0424107 Z" id="Shape"></path>
            </g>
        </g>
    </symbol>
    <symbol viewBox="0 0 96 96" xmlns="http://www.w3.org/2000/svg" id="ext-sfeventmgt-location">
        <g id="Page-1" stroke="none" stroke-width="1" fill="none" fill-rule="evenodd">
            <g id="Location" fill="currentColor" fill-rule="nonzero">
                <g id="map-marker-alt" transform="translate(13.000000, 0.000000)">
                    <path d="M31.8516354,93.0832781 C4.98664062,53.9998794 0,49.988728 0,35.6249913 C0,15.949791 15.8938307,0 35.5,0 C55.1061693,0 71,15.949791 71,35.6249913 C71,49.988728 66.0133594,53.9998794 39.1483646,93.0832781 C37.3853828,95.6390001 33.6144323,95.6388145 31.8516354,93.0832781 Z M36.1339286,50.6666667 C44.1864776,50.6666667 50.7142857,44.1449879 50.7142857,36.1 C50.7142857,28.0550121 44.1864776,21.5333333 36.1339286,21.5333333 C28.0813796,21.5333333 21.5535714,28.0550121 21.5535714,36.1 C21.5535714,44.1449879 28.0813796,50.6666667 36.1339286,50.6666667 Z" id="Shape"></path>
                </g>
            </g>
        </g>
    </symbol>
    <symbol viewBox="0 0 96 96" xmlns="http://www.w3.org/2000/svg" id="ext-sfeventmgt-speaker">
        <g id="Page-1" stroke="none" stroke-width="1" fill="none" fill-rule="evenodd">
            <g id="Speaker" fill="currentColor" fill-rule="nonzero">
                <path d="M71.1383915,0 C58.9167485,0 49.0010759,7.15619473 49.0010759,15.9880613 C49.0010759,19.7775392 50.8227925,23.2518679 53.8666734,25.9959727 C53.1979419,27.786943 52.1679418,28.5094804 51.0149567,29.3088835 C50.1617476,29.9007492 48.5398818,30.8231373 49.1240609,32.6294808 C49.5160759,33.8132123 50.7305536,34.5280631 52.0526433,34.4204511 C56.487793,34.066869 60.6001068,32.9446301 64.1205549,31.1536598 C66.3265999,31.6840329 68.6863763,31.9761225 71.1307049,31.9761225 C83.3600344,31.9761225 93.2680205,24.8276144 93.2680205,15.9880613 C93.2757071,7.15619473 83.367721,0 71.1383915,0 Z M71.1383915,28.2865699 C68.6402569,28.2865699 66.111376,27.9483609 63.6593609,27.2104504 C61.1765994,28.6708983 57.6100319,30.7462717 53.3055539,31.3611971 C55.7652556,29.5164208 57.6715245,26.6262713 58.0097335,24.5662711 C55.0811511,22.5677634 52.6906285,19.5776885 52.6906285,15.9880613 C52.6906285,10.5382846 59.3241366,3.6895526 71.1383915,3.6895526 C82.9526463,3.6895526 89.5861545,10.5382846 89.5861545,15.9880613 C89.5861545,21.4455245 82.9526463,28.2865699 71.1383915,28.2865699 Z M66.218988,15.9880613 C66.218988,18.0250018 64.5663759,19.6776139 62.5294354,19.6776139 C60.4924949,19.6776139 58.8398828,18.0250018 58.8398828,15.9880613 C58.8398828,13.9511208 60.4924949,12.2985087 62.5294354,12.2985087 C64.5663759,12.2985087 66.218988,13.9511208 66.218988,15.9880613 Z M74.8279441,15.9880613 C74.8279441,18.0250018 73.175332,19.6776139 71.1383915,19.6776139 C69.101451,19.6776139 67.4488389,18.0250018 67.4488389,15.9880613 C67.4488389,13.9511208 69.101451,12.2985087 71.1383915,12.2985087 C73.175332,12.2985087 74.8279441,13.9511208 74.8279441,15.9880613 Z M83.4369001,15.9880613 C83.4369001,18.0250018 81.784288,19.6776139 79.7473475,19.6776139 C77.710407,19.6776139 76.0577949,18.0250018 76.0577949,15.9880613 C76.0577949,13.9511208 77.710407,12.2985087 79.7473475,12.2985087 C81.784288,12.2985087 83.4369001,13.9511208 83.4369001,15.9880613 Z" id="Shape"></path>
                <path d="M12,53 C12,41.95425 20.954375,33 32,33 C43.045625,33 52,41.95425 52,53 C52,64.04575 43.045625,73 32,73 C20.954375,73 12,64.04575 12,53 Z M50,77 L46.4305,77 C37.55475,82.339125 26.4415,82.336875 17.5695,77 L14,77 C6.268,77 0,83.268 0,91 L0,94 C0,95.656875 1.343125,97 3,97 L61,97 C62.656875,97 64,95.656875 64,94 L64,91 C64,83.268 57.732,77 50,77 Z" id="Shape"></path>
            </g>
        </g>
    </symbol>
    <symbol viewBox="0 0 96 96" xmlns="http://www.w3.org/2000/svg" id="ext-sfeventmgt-registration-confirmed">
        <g id="Page-1" stroke="none" stroke-width="1" fill="none" fill-rule="evenodd">
            <g id="Registration-confirmed" fill="currentColor" fill-rule="nonzero">
                <path d="M90,21.0000132 L90,87.0000044 C90,91.9687754 85.9687746,96 81.0000025,96 L14.9999975,96 C10.0312254,96 6,91.9687754 6,87.0000044 L6,21.0000132 C6,16.0312422 10.0312254,12.0000176 14.9999975,12.0000176 L23.999995,12.0000176 L23.999995,2.2499989 C23.999995,1.01249951 25.0124947,0 26.2499943,0 L33.7500157,0 C34.9875153,0 36.0000151,1.01249951 36.0000151,2.2499989 L36.0000151,12.0000176 L59.9999849,12.0000176 L59.9999849,2.2499989 C59.9999849,1.01249951 61.0124847,0 62.2499843,0 L69.7500057,0 C70.9875053,0 72.000005,1.01249951 72.000005,2.2499989 L72.000005,12.0000176 L81.0000025,12.0000176 C85.9687746,12.0000176 90,16.0312422 90,21.0000132 Z M81.0000025,85.8750049 L81.0000025,30.0000088 L14.9999975,30.0000088 L14.9999975,85.8750049 C14.9999975,86.4937546 15.5062473,87.0000044 16.1249972,87.0000044 L79.8750028,87.0000044 C80.4937527,87.0000044 81.0000025,86.4937546 81.0000025,85.8750049 Z" id="Shape"></path>
                <path d="M41.9254194,76.391161 L28.6004063,62.8805773 C27.7998646,62.0688867 27.7998646,60.7528227 28.6004063,59.941051 L31.4994775,57.0015247 C32.3000193,56.1897529 33.598087,56.1897529 34.3986288,57.0015247 L43.374995,66.102819 L62.6013712,46.6087679 C63.401913,45.7970774 64.6999807,45.7970774 65.5005225,46.6087679 L68.3995937,49.5482942 C69.2001354,50.3599847 69.2001354,51.6760488 68.3995937,52.4878205 L44.8245706,76.3912422 C44.0239488,77.2029328 42.7259612,77.2029328 41.9254194,76.391161 Z" id="Shape"></path>
            </g>
        </g>
    </symbol>
    <symbol viewBox="0 0 96 96" xmlns="http://www.w3.org/2000/svg" id="ext-sfeventmgt-registration-unconfirmed">
        <g id="Page-1" stroke="none" stroke-width="1" fill="none" fill-rule="evenodd">
            <g id="Registration-unconfirmed" fill="currentColor" fill-rule="nonzero">
                <path d="M90,21.0000132 L90,87.0000044 C90,91.9687754 85.9687746,96 81.0000025,96 L14.9999975,96 C10.0312254,96 6,91.9687754 6,87.0000044 L6,21.0000132 C6,16.0312422 10.0312254,12.0000176 14.9999975,12.0000176 L23.999995,12.0000176 L23.999995,2.2499989 C23.999995,1.01249951 25.0124947,0 26.2499943,0 L33.7500157,0 C34.9875153,0 36.0000151,1.01249951 36.0000151,2.2499989 L36.0000151,12.0000176 L59.9999849,12.0000176 L59.9999849,2.2499989 C59.9999849,1.01249951 61.0124847,0 62.2499843,0 L69.7500057,0 C70.9875053,0 72.000005,1.01249951 72.000005,2.2499989 L72.000005,12.0000176 L81.0000025,12.0000176 C85.9687746,12.0000176 90,16.0312422 90,21.0000132 Z M81.0000025,85.8750049 L81.0000025,30.0000088 L14.9999975,30.0000088 L14.9999975,85.8750049 C14.9999975,86.4937546 15.5062473,87.0000044 16.1249972,87.0000044 L79.8750028,87.0000044 C80.4937527,87.0000044 81.0000025,86.4937546 81.0000025,85.8750049 Z" id="Shape"></path>
                <path d="M63.7083333,42.84375 L64.03125,42.84375 C64.5662422,42.84375 65,42.4134902 65,41.8828125 L65,39.9609375 C65,39.4302598 64.5662422,39 64.03125,39 L34.96875,39 C34.4337578,39 34,39.4302598 34,39.9609375 L34,41.8828125 C34,42.4134902 34.4337578,42.84375 34.96875,42.84375 L35.2916667,42.84375 C35.2916667,49.2951641 37.8901771,56.1212637 43.1369271,59.5 C37.8668464,62.893791 35.2916667,69.7419922 35.2916667,76.15625 L34.96875,76.15625 C34.4337578,76.15625 34,76.5865098 34,77.1171875 L34,79.0390625 C34,79.5697402 34.4337578,80 34.96875,80 L64.03125,80 C64.5662422,80 65,79.5697402 65,79.0390625 L65,77.1171875 C65,76.5865098 64.5662422,76.15625 64.03125,76.15625 L63.7083333,76.15625 C63.7083333,69.7048359 61.1098229,62.8787363 55.8630729,59.5 C61.1332344,56.106209 63.7083333,49.2580078 63.7083333,42.84375 Z M39.1666667,42.84375 L59.8333333,42.84375 C59.8333333,50.9812891 55.206987,57.578125 49.5,57.578125 C43.793013,57.578125 39.1666667,50.9813691 39.1666667,42.84375 Z M59.8333333,76.15625 L39.1666667,76.15625 C39.1666667,68.0187109 43.7930937,61.421875 49.5,61.421875 C55.2069062,61.421875 59.8333333,68.0187109 59.8333333,76.15625 Z" id="Shape"></path>
            </g>
        </g>
    </symbol>
    <symbol viewBox="0 0 96 96" xmlns="http://www.w3.org/2000/svg" id="ext-sfeventmgt-organisator">
        <g id="Page-1" stroke="none" stroke-width="1" fill="none" fill-rule="evenodd">
            <g id="Organisator" fill="currentColor" fill-rule="nonzero">
                <path d="M12,53 C12,41.95425 20.954375,33 32,33 C43.045625,33 52,41.95425 52,53 C52,64.04575 43.045625,73 32,73 C20.954375,73 12,64.04575 12,53 Z M50,77 L46.4305,77 C37.55475,82.339125 26.4415,82.336875 17.5695,77 L14,77 C6.268,77 0,83.268 0,91 L0,94 C0,95.656875 1.343125,97 3,97 L61,97 C62.656875,97 64,95.656875 64,94 L64,91 C64,83.268 57.732,77 50,77 Z" id="Shape"></path>
                <path d="M86.4736072,26.8216775 L89.4809391,28.3208816 C90.3822463,28.8384639 90.774895,29.9360954 90.4179416,30.9177171 C89.6237204,33.0772849 88.0620495,35.0583759 86.6163885,36.7895997 C85.9560248,37.5838208 84.8137741,37.7801452 83.9124669,37.2625628 L81.3156313,35.7633588 C79.887818,36.985924 78.2279849,37.9586219 76.4164467,38.592214 L76.4164467,41.5906221 C76.4164467,42.6257868 75.6757685,43.5181702 74.6584515,43.6966469 C72.4631884,44.0714479 70.1608393,44.0892955 67.8852618,43.6966469 C66.8590209,43.5181702 66.100495,42.6347107 66.100495,41.5906221 L66.100495,38.592214 C64.2889568,37.949698 62.6291238,36.985924 61.2013104,35.7633588 L58.6044748,37.253639 C57.7120914,37.7712213 56.5609169,37.574897 55.9005532,36.7806758 C54.4548922,35.0494521 52.9289166,33.068361 52.1346954,30.9177171 C51.7777421,29.9450193 52.1703908,28.8473877 53.071698,28.3208816 L56.0433346,26.8216775 C55.6953051,24.9565963 55.6953051,23.0379721 56.0433346,21.163967 L53.071698,19.6558391 C52.1703908,19.1382568 51.7688183,18.0406252 52.1346954,17.0679274 C52.9289166,14.9083597 54.4548922,12.9272686 55.9005532,11.1960449 C56.5609169,10.4018237 57.7031676,10.2054993 58.6044748,10.7230817 L61.2013104,12.2222857 C62.6291238,10.9997205 64.2889568,10.0270227 66.100495,9.39343049 L66.100495,6.38609856 C66.100495,5.3598577 66.8322494,4.46747434 67.8495664,4.28899766 C70.0448295,3.91419665 72.3561024,3.89634899 74.63168,4.28007383 C75.6579208,4.4585505 76.4164467,5.34201003 76.4164467,6.38609856 L76.4164467,9.38450665 C78.2279849,10.0270227 79.887818,10.9907967 81.3156313,12.2133619 L83.9124669,10.7141579 C84.8048503,10.1965755 85.9560248,10.3928999 86.6163885,11.187121 C88.0620495,12.9183448 89.5791013,14.8994358 90.3733224,17.0590036 C90.7302758,18.0317014 90.3822463,19.1293329 89.4809391,19.6558391 L86.4736072,21.1550432 C86.8216367,23.0290482 86.8216367,24.9476725 86.4736072,26.8216775 Z M75.9791788,28.7046064 C81.2620883,21.8332545 73.4180386,13.9892048 66.5466867,19.2721143 C61.2637772,26.1434662 69.107827,33.9875159 75.9791788,28.7046064 Z" id="Shape"></path>
            </g>
        </g>
    </symbol>
    <symbol viewBox="0 0 96 96" xmlns="http://www.w3.org/2000/svg" id="ext-sfeventmgt-priceoption">
        <g id="Page-1" stroke="none" stroke-width="1" fill="none" fill-rule="evenodd">
            <g id="Priceoption" fill="currentColor" fill-rule="nonzero">
                <g id="money-bill-alt" transform="translate(0.000000, 19.000000)">
                    <path d="M48,11.9060052 C40.04685,11.9060052 33.6,19.3685405 33.6,28.5744125 C33.6,37.7787963 40.04655,45.2428198 48,45.2428198 C55.95,45.2428198 62.4,37.7822193 62.4,28.5744125 C62.4,19.3685405 55.95315,11.9060052 48,11.9060052 Z M55.2,36.3770131 C55.2,37.4897781 54.61245,38.0992167 53.4642,38.0992167 L43.37025,38.0992167 C42.22185,38.0992167 41.6343,37.4897781 41.6343,36.3770131 L41.6343,35.0523211 C41.6343,33.9395561 42.22185,33.3301175 43.37025,33.3301175 L45.6399,33.3301175 L45.6399,27.3952715 C45.6399,26.6268877 45.72,25.8321619 45.72,25.8321619 L45.6666,25.8321619 C45.6666,25.8321619 45.39975,26.2295248 45.2394,26.38847 C44.57175,27.0243995 43.6638,27.0508903 42.8895,26.2295248 L42.0618,25.3021958 C41.2605,24.5073211 41.3142,23.6329739 42.1419,22.8645901 L45.3999,19.8971671 C46.06725,19.2877285 46.6548,19.0493107 47.5629,19.0493107 L49.37865,19.0493107 C50.52705,19.0493107 51.14115,19.6321097 51.14115,20.7715144 L51.14115,33.3299687 L53.46435,33.3299687 C54.6126,33.3299687 55.20015,33.9392585 55.20015,35.0521723 L55.20015,36.3770131 L55.2,36.3770131 Z M92.4,0 L3.6,0 C1.61175,0 0,1.59912533 0,3.57180157 L0,53.4281984 C0,55.4008747 1.61175,57 3.6,57 L92.4,57 C94.38825,57 96,55.4008747 96,53.4281984 L96,3.57180157 C96,1.59912533 94.38825,0 92.4,0 Z M76.8,50.0052219 L19.2,50.0052219 C19.2,43.4296841 13.82745,38.0992167 7.2,38.0992167 L7.2,19.0496084 C13.82745,19.0496084 19.2,13.719141 19.2,7.14360313 L76.8,7.14360313 C76.8,13.719141 82.17255,19.0496084 88.8,19.0496084 L88.8,38.0992167 C82.17255,38.0992167 76.8,43.4296841 76.8,50.0052219 Z" id="Shape"></path>
                </g>
            </g>
        </g>
    </symbol>
    <symbol viewBox="0 0 96 96" xmlns="http://www.w3.org/2000/svg" id="ext-sfeventmgt-registration-field">
        <g id="Page-1" stroke="none" stroke-width="1" fill="none" fill-rule="evenodd">
            <g id="Registration-Field" fill="fillColor" fill-rule="nonzero">
                <g id="code" transform="translate(2.000000, 12.000000)">
                    <path d="M39.6565503,72.928896 L30.9837903,70.4050734 C30.0738614,70.1484134 29.5620264,69.1930681 29.8179439,68.2804995 L49.2250215,1.23522235 C49.480939,0.322653713 50.4335208,-0.190666146 51.3434497,0.0659937839 L60.0162097,2.58981642 C60.9261386,2.84647635 61.4379736,3.80182165 61.1820561,4.71439029 L41.7749785,71.7596674 C41.5048434,72.6722361 40.5664792,73.1998148 39.6565503,72.928896 Z M23.4484415,56.9304271 L29.6331146,50.3143044 C30.287126,49.6156191 30.2444731,48.503426 29.5193735,47.8617762 L16.6381923,36.4974449 L29.5193735,25.1331136 C30.2444731,24.4914637 30.3013436,23.3792707 29.6331146,22.6805854 L23.4484415,16.0644627 C22.8086478,15.3800362 21.7281072,15.3372596 21.0314429,15.9931683 L0.543824701,35.242663 C-0.1812749,35.9128306 -0.1812749,37.0678003 0.543824701,37.7379679 L21.0314429,57.0017215 C21.7281072,57.6576302 22.8086478,57.6291124 23.4484415,56.9304271 Z M69.9685571,57.0159804 L90.4561753,37.7522268 C91.1812749,37.0820592 91.1812749,35.9270895 90.4561753,35.2569219 L69.9685571,15.9789094 C69.2861105,15.3372596 68.2055699,15.3657774 67.5515585,16.0502038 L61.3668854,22.6663265 C60.712874,23.3650118 60.7555269,24.4772049 61.4806265,25.1188547 L74.3618077,36.4974449 L61.4806265,47.8617762 C60.7555269,48.503426 60.6986564,49.6156191 61.3668854,50.3143044 L67.5515585,56.9304271 C68.1913522,57.6291124 69.2718928,57.6576302 69.9685571,57.0159804 Z" id="Shape"></path>
                </g>
            </g>
        </g>
    </symbol>
    <symbol viewBox="0 0 96 96" xmlns="http://www.w3.org/2000/svg" id="ext-sfeventmgt-logfile">
        <g id="Page-1" stroke="none" stroke-width="1" fill="none" fill-rule="evenodd">
            <g id="Logfile" fill="fillColor" fill-rule="nonzero">
                <path d="M67,46.0769231 L67,50.9230769 C67,52.0653846 65.959375,53 64.6875,53 L32.3125,53 C31.040625,53 30,52.0653846 30,50.9230769 L30,46.0769231 C30,44.9346154 31.040625,44 32.3125,44 L64.6875,44 C65.959375,44 67,44.9346154 67,46.0769231 Z M64.6875,60 L32.3125,60 C31.040625,60 30,60.9346154 30,62.0769231 L30,66.9230769 C30,68.0653846 31.040625,69 32.3125,69 L64.6875,69 C65.959375,69 67,68.0653846 67,66.9230769 L67,62.0769231 C67,60.9346154 65.959375,60 64.6875,60 Z M84,24.73125 L84,87 C84,91.96875 79.9127604,96 74.875,96 L20.125,96 C15.0872396,96 11,91.96875 11,87 L11,9 C11,4.03125 15.0872396,0 20.125,0 L58.9252604,0 C61.3395833,0 63.6588542,0.95625 65.3697917,2.64375 L81.3195312,18.375 C83.0304687,20.04375 84,22.35 84,24.73125 Z M59,9 L59,23 L73,23 L59,9 Z M75,87 L75,33 L55.1388889,33 C52.5989583,33 50.5555556,30.99375 50.5555556,28.5 L50.5555556,9 L20,9 L20,87 L75,87 Z" id="Shape"></path>
            </g>
        </g>
    </symbol>
</svg>