<?xml version="1.0" encoding="UTF-8"?>
<svg width="1138px" height="1181px" viewBox="0 0 1138 1181" version="1.1" xmlns="http://www.w3.org/2000/svg" xmlns:xlink="http://www.w3.org/1999/xlink">
    <g id="events" transform="translate(1.000000, 1.000000)" fill-rule="nonzero">
        <rect id="path-1" stroke="#979797" stroke-width="2" fill="#FF8700" x="0" y="0" width="1136" height="1179"></rect>
        <path d="M268.461653,915.999255 L390.999814,915.999255 L390.999814,793.461095 L268.461653,793.461095 L268.461653,915.999255 Z M554.384773,915.999255 L554.384773,793.461095 L418.231013,793.461095 L418.231013,915.999255 L554.384773,915.999255 Z M268.461653,766.229896 L390.999814,766.229896 L390.999814,630.076136 L268.461653,630.076136 L268.461653,766.229896 Z M554.384773,766.229896 L554.384773,630.076136 L418.231013,630.076136 L418.231013,766.229896 L554.384773,766.229896 Z M268.461653,602.845681 L390.999814,602.845681 L390.999814,480.30752 L268.461653,480.30752 L268.461653,602.845681 Z M717.768987,915.999255 L717.768987,793.461095 L581.615227,793.461095 L581.615227,915.999255 L717.768987,915.999255 Z M554.384773,602.845681 L554.384773,480.30752 L418.231013,480.30752 L418.231013,602.845681 L554.384773,602.845681 Z M717.768987,766.229896 L717.768987,630.076136 L581.615227,630.076136 L581.615227,766.229896 L717.768987,766.229896 Z M745.000186,915.999255 L867.538347,915.999255 L867.538347,793.461095 L745.000186,793.461095 L745.000186,915.999255 Z M431.845867,276.076508 C431.845867,272.388795 430.498405,269.197724 427.80348,266.503295 C425.108556,263.808867 421.917485,262.460908 418.230268,262.460908 L390.999814,262.460908 C387.312101,262.460908 384.12103,263.808371 381.426601,266.503295 C378.732173,269.19822 377.384214,272.389291 377.384214,276.076508 L377.384214,398.614669 C377.384214,402.302382 378.731677,405.493453 381.426601,408.187881 C384.121526,410.882309 387.312597,412.230268 390.999814,412.230268 L418.230268,412.230268 C421.917981,412.230268 425.109052,410.882806 427.80348,408.187881 C430.497909,405.492956 431.845867,402.301886 431.845867,398.614669 L431.845867,276.076508 Z M745.000186,766.229896 L867.538347,766.229896 L867.538347,630.076136 L745.000186,630.076136 L745.000186,766.229896 Z M717.768987,602.845681 L717.768987,480.30752 L581.615227,480.30752 L581.615227,602.845681 L717.768987,602.845681 Z M745.000186,602.845681 L867.538347,602.845681 L867.538347,480.30752 L745.000186,480.30752 L745.000186,602.845681 Z M758.615786,276.076508 C758.615786,272.388795 757.268323,269.197724 754.573399,266.503295 C751.878474,263.808867 748.687403,262.460908 745.000186,262.460908 L717.769732,262.460908 C714.082019,262.460908 710.890948,263.808371 708.19652,266.503295 C705.502091,269.19822 704.154133,272.389291 704.154133,276.076508 L704.154133,398.614669 C704.154133,402.302382 705.501595,405.493453 708.19652,408.187881 C710.891444,410.882309 714.082515,412.230268 717.769732,412.230268 L745.000186,412.230268 C748.687899,412.230268 751.87897,410.882806 754.573399,408.187881 C757.267827,405.492956 758.615786,402.301886 758.615786,398.614669 L758.615786,276.076508 Z M922,916 C922,930.74986 916.610647,943.514392 905.831941,954.293594 C895.053235,965.072796 882.288704,970.461653 867.538347,970.461653 L268.461653,970.461653 C253.711793,970.461653 240.947261,965.0723 230.168059,954.293594 C219.388857,943.514888 214,930.750357 214,916 L214,371.384214 C214,356.634354 219.389353,343.869823 230.168059,333.09062 C240.946765,322.311418 253.711296,316.922065 268.461653,316.922561 L322.923306,316.922561 L322.923306,276.076508 C322.923306,257.355493 329.589137,241.329155 342.920799,227.997493 C356.252461,214.665831 372.278799,208 390.999814,208 L418.230268,208 C436.951283,208 452.977621,214.665831 466.309283,227.997493 C479.640945,241.329155 486.306776,257.355493 486.306776,276.076508 L486.306776,316.922561 L649.691735,316.922561 L649.691735,276.076508 C649.691735,257.355493 656.357566,241.329155 669.689228,227.997493 C683.02089,214.665831 699.047228,208 717.768243,208 L744.998697,208 C763.719712,208 779.74605,214.665831 793.077712,227.997493 C806.409374,241.329155 813.075205,257.355493 813.075205,276.076508 L813.075205,316.922561 L867.536858,316.922561 C882.286718,316.922561 895.05125,322.311914 905.830452,333.09062 C916.609654,343.869326 922,356.633858 922,371.384214 L922,916 Z" id="Shape" fill="#FFFFFF"></path>
    </g>
</svg>