<?xml version="1.0" encoding="UTF-8"?>
<svg width="96px" height="96px" viewBox="0 0 96 96" version="1.1" xmlns="http://www.w3.org/2000/svg" xmlns:xlink="http://www.w3.org/1999/xlink">
    <!-- Generator: Sketch 51.3 (57544) - http://www.bohemiancoding.com/sketch -->
    <title>Handle Expired Registrations</title>
    <desc>Created with Sketch.</desc>
    <defs></defs>
    <g id="Handle-Expired-Registrations" stroke="none" stroke-width="1" fill="none" fill-rule="evenodd">
        <g id="bolt" transform="translate(27.000000, 10.000000)" fill="#666666" fill-rule="nonzero">
            <path d="M40.4966518,20.0424107 C41,20.5915179 41.1372768,21.3694196 40.8169643,22.0558036 L16.1071429,74.9988839 C15.7410714,75.6852679 15.0089286,76.1428571 14.1852679,76.1428571 C14.0022321,76.1428571 13.7734375,76.0970982 13.5446429,76.0513393 C12.5379464,75.7310268 11.9430804,74.7700893 12.171875,73.8091518 L21.1863839,36.8359375 L2.60825893,41.4575893 C2.42522321,41.5033482 2.2421875,41.5033482 2.05915179,41.5033482 C1.55580357,41.5033482 1.00669643,41.3203125 0.640625,41 C0.0915178571,40.5424107 -0.0915178571,39.8560268 0.0457589286,39.2154018 L9.24330357,1.46428571 C9.47209821,0.594866071 10.2957589,0 11.2566964,0 L26.265625,0 C27.4095982,0 28.3247768,0.869419643 28.3247768,1.921875 C28.3247768,2.19642857 28.2332589,2.47098214 28.0959821,2.74553571 L20.2712054,23.9319196 L38.3917411,19.4475446 C38.5747768,19.4017857 38.7578125,19.3560268 38.9408482,19.3560268 C39.5357143,19.3560268 40.0848214,19.6305804 40.4966518,20.0424107 Z" id="Shape"></path>
        </g>
    </g>
</svg>