<!-- Generated by IcoMoon.io -->
<svg version="1.1" xmlns="http://www.w3.org/2000/svg" width="448" height="448" viewBox="0 0 448 448">
    <title></title>
    <g id="icomoon-ignore">
    </g>
    <path d="M416 376v-192c-5.25 6-11 11.5-17.25 16.5-35.75 27.5-71.75 55.5-106.5 84.5-18.75 15.75-42 35-68 35h-0.5c-26 0-49.25-19.25-68-35-34.75-29-70.75-57-106.5-84.5-6.25-5-12-10.5-17.25-16.5v192c0 4.25 3.75 8 8 8h368c4.25 0 8-3.75 8-8zM416 113.25c0-6.25 1.5-17.25-8-17.25h-368c-4.25 0-8 3.75-8 8 0 28.5 14.25 53.25 36.75 71 33.5 26.25 67 52.75 100.25 79.25 13.25 10.75 37.25 33.75 54.75 33.75h0.5c17.5 0 41.5-23 54.75-33.75 33.25-26.5 66.75-53 100.25-79.25 16.25-12.75 36.75-40.5 36.75-61.75zM448 104v272c0 22-18 40-40 40h-368c-22 0-40-18-40-40v-272c0-22 18-40 40-40h368c22 0 40 18 40 40z"></path>
</svg>
