<!-- Generated by IcoMoon.io -->
<svg version="1.1" xmlns="http://www.w3.org/2000/svg" width="384" height="448" viewBox="0 0 384 448">
    <title></title>
    <g id="icomoon-ignore">
    </g>
    <path d="M367 95c9.25 9.25 17 27.75 17 41v288c0 13.25-10.75 24-24 24h-336c-13.25 0-24-10.75-24-24v-400c0-13.25 10.75-24 24-24h224c13.25 0 31.75 7.75 41 17zM256 34v94h94c-1.5-4.25-3.75-8.5-5.5-10.25l-78.25-78.25c-1.75-1.75-6-4-10.25-5.5zM352 416v-256h-104c-13.25 0-24-10.75-24-24v-104h-192v384h320zM107.25 357.5v26.5h70.25v-26.5h-18.75l25.75-40.25c3-4.75 4.5-8.5 5.25-8.5h0.5c0.25 1 0.75 1.75 1.25 2.5 1 2 2.5 3.5 4.25 6l26.75 40.25h-19v26.5h72.75v-26.5h-17l-48-68.25 48.75-70.5h16.75v-26.75h-69.75v26.75h18.5l-25.75 39.75c-3 4.75-5.25 8.5-5.25 8.25h-0.5c-0.25-1-0.75-1.75-1.25-2.5-1-1.75-2.25-3.5-4.25-5.75l-26.5-39.75h19v-26.75h-72.5v26.75h17l47.25 68-48.5 70.75h-17z"></path>
</svg>
