<!-- Generated by IcoMoon.io -->
<svg version="1.1" xmlns="http://www.w3.org/2000/svg" width="418" height="448" viewBox="0 0 418 448">
    <title></title>
    <g id="icomoon-ignore">
    </g>
    <path d="M352 232.5v79.5c0 39.75-32.25 72-72 72h-208c-39.75 0-72-32.25-72-72v-208c0-39.75 32.25-72 72-72h208c10 0 20 2 29.25 6.25 2.25 1 4 3.25 4.5 5.75 0.5 2.75-0.25 5.25-2.25 7.25l-12.25 12.25c-1.5 1.5-3.75 2.5-5.75 2.5-0.75 0-1.5-0.25-2.25-0.5-3.75-1-7.5-1.5-11.25-1.5h-208c-22 0-40 18-40 40v208c0 22 18 40 40 40h208c22 0 40-18 40-40v-63.5c0-2 0.75-4 2.25-5.5l16-16c1.75-1.75 3.75-2.5 5.75-2.5 1 0 2 0.25 3 0.75 3 1.25 5 4 5 7.25zM409.75 110.25l-203.5 203.5c-8 8-20.5 8-28.5 0l-107.5-107.5c-8-8-8-20.5 0-28.5l27.5-27.5c8-8 20.5-8 28.5 0l65.75 65.75 161.75-161.75c8-8 20.5-8 28.5 0l27.5 27.5c8 8 8 20.5 0 28.5z"></path>
</svg>
