<?xml version="1.0" encoding="UTF-8"?>
<svg width="96px" height="96px" viewBox="0 0 96 96" version="1.1" xmlns="http://www.w3.org/2000/svg" xmlns:xlink="http://www.w3.org/1999/xlink">
    <!-- Generator: Sketch 48.2 (47327) - http://www.bohemiancoding.com/sketch -->
    <title>Logfile</title>
    <desc>Created with Sketch.</desc>
    <defs></defs>
    <g id="Page-1" stroke="none" stroke-width="1" fill="none" fill-rule="evenodd">
        <g id="Logfile" fill="#666666" fill-rule="nonzero">
            <path d="M67,46.0769231 L67,50.9230769 C67,52.0653846 65.959375,53 64.6875,53 L32.3125,53 C31.040625,53 30,52.0653846 30,50.9230769 L30,46.0769231 C30,44.9346154 31.040625,44 32.3125,44 L64.6875,44 C65.959375,44 67,44.9346154 67,46.0769231 Z M64.6875,60 L32.3125,60 C31.040625,60 30,60.9346154 30,62.0769231 L30,66.9230769 C30,68.0653846 31.040625,69 32.3125,69 L64.6875,69 C65.959375,69 67,68.0653846 67,66.9230769 L67,62.0769231 C67,60.9346154 65.959375,60 64.6875,60 Z M84,24.73125 L84,87 C84,91.96875 79.9127604,96 74.875,96 L20.125,96 C15.0872396,96 11,91.96875 11,87 L11,9 C11,4.03125 15.0872396,0 20.125,0 L58.9252604,0 C61.3395833,0 63.6588542,0.95625 65.3697917,2.64375 L81.3195312,18.375 C83.0304687,20.04375 84,22.35 84,24.73125 Z M59,9 L59,23 L73,23 L59,9 Z M75,87 L75,33 L55.1388889,33 C52.5989583,33 50.5555556,30.99375 50.5555556,28.5 L50.5555556,9 L20,9 L20,87 L75,87 Z" id="Shape"></path>
        </g>
    </g>
</svg>