<svg width="64px" height="64px" viewBox="0 0 64 64" xmlns="http://www.w3.org/2000/svg">
    <g stroke="none" fill="none" fill-rule="evenodd" stroke-width="1">
        <g transform="translate(9, 11.6625)">
            <path d="M9.4605019,1.90603727 C10.49751,1.90603727 11.3367835,2.75862069 11.3367835,3.81207455 C11.3367835,4.8655284 10.49751,5.71811182 9.4605019,5.71811182 L5.79582072,5.71811182 C5.51899229,5.71811182 5.25095206,5.77167727 5.00048823,5.87880817 C4.75441851,5.98593907 4.53471341,6.13324406 4.34576701,6.32518692 C4.15682062,6.51712978 4.01181525,6.73585537 3.9063568,6.98582747 C3.80089835,7.24026336 3.74816912,7.5125544 3.74816912,7.79377302 L3.74816912,34.1122643 C3.74816912,34.3934829 3.80089835,34.6657739 3.9107509,34.9202098 C4.01181525,35.1657181 4.16121473,35.3889075 4.35016112,35.5808504 C4.53910751,35.7683294 4.75441851,35.9200982 5.00048823,36.0227653 C5.25534616,36.1298962 5.52338639,36.1879255 5.79582072,36.1879255 L39.1997852,36.1879255 C39.4766136,36.1879255 39.7446538,36.13436 39.9951177,36.0272291 C40.2411874,35.9200982 40.4608925,35.7727932 40.6498389,35.5808504 C40.8387853,35.3889075 40.9837906,35.1701819 41.0892491,34.9202098 C41.1947075,34.6657739 41.2474368,34.3934829 41.2474368,34.1122643 L41.2474368,7.79377302 C41.2474368,7.5125544 41.1947075,7.24026336 41.084855,6.98582747 C40.9837906,6.74031916 40.8343912,6.51712978 40.6454448,6.32518692 C40.4564984,6.13770785 40.2411874,5.98593907 39.9951177,5.88327196 C39.7402597,5.77614106 39.4722195,5.71811182 39.1997852,5.71811182 L35.535104,5.71811182 C34.4980959,5.71811182 33.6588224,4.8655284 33.6588224,3.81207455 C33.6588224,2.75862069 34.4980959,1.90603727 35.535104,1.90603727 L39.1997852,1.90603727 C39.9819354,1.90603727 40.742115,2.06226984 41.4583537,2.37027118 C42.1438336,2.66488115 42.763402,3.08894097 43.2994825,3.62905926 C43.8311688,4.16917755 44.2486085,4.79857159 44.5430134,5.49938623 C44.8462064,6.2269836 45,6.99921884 45,7.79377302 L45,34.1122643 C45,34.9068184 44.8462064,35.6745899 44.5430134,36.4021873 C44.2530026,37.1030019 43.8355629,37.7323959 43.3038766,38.2725142 C42.7677961,38.8170963 42.1482277,39.2411561 41.4583537,39.5357661 C40.742115,39.8437674 39.9819354,40 39.1997852,40 L5.79582072,40 C5.01367054,40 4.25349087,39.8437674 3.53725222,39.5357661 C2.85177229,39.2411561 2.23220389,38.8170963 1.69612343,38.276978 C1.16443707,37.7368597 0.746997364,37.1074657 0.45259252,36.406651 C0.153793575,35.6745899 0,34.9023546 0,34.1122643 L0,7.79377302 C0,6.99921884 0.153793575,6.23144738 0.456986622,5.50385002 C0.746997364,4.80303538 1.16443707,4.17364133 1.69612343,3.63352304 C2.23220389,3.08894097 2.85177229,2.66488115 3.54164632,2.37027118 C4.25349087,2.06226984 5.01367054,1.90603727 5.79582072,1.90603727 L9.4605019,1.90603727 Z M24.291739,1.93728379 C25.3394838,1.93728379 26.1888487,2.78664873 26.1888487,3.83439348 C26.1888487,4.88213824 25.3394838,5.73150318 24.291739,5.73150318 L20.4402207,5.73150318 C19.392476,5.73150318 18.543111,4.88213824 18.543111,3.83439348 C18.543111,2.78664873 19.392476,1.93728379 20.4402207,1.93728379 L24.291739,1.93728379 Z" fill="var(--icon-color-accent, #ff8700)"></path>
            <path d="M14.9970706,10.4765093 C13.9600625,10.4765093 13.120789,9.6239259 13.120789,8.57047205 L13.120789,1.90603727 C13.120789,0.852583417 13.9600625,0 14.9970706,0 C16.0340787,0 16.8733522,0.857047205 16.8733522,1.90603727 L16.8733522,8.57047205 C16.8733522,9.6239259 16.0340787,10.4765093 14.9970706,10.4765093 Z M29.9985353,10.4765093 C28.9615272,10.4765093 28.1222537,9.6239259 28.1222537,8.57047205 L28.1222537,1.90603727 C28.1222537,0.852583417 28.9615272,0 29.9985353,0 C31.0355434,0 31.8748169,0.852583417 31.8748169,1.90603727 L31.8748169,8.57047205 C31.8704228,9.6239259 31.0311493,10.4765093 29.9985353,10.4765093 Z" fill="currentColor" fill-rule="nonzero"></path>
            <path d="M13.3150246,14.4805267 L35.5845815,14.4805267 C36.6323263,14.4805267 37.4816912,15.3298917 37.4816912,16.3776364 C37.4816912,17.4253812 36.6323263,18.2747461 35.5845815,18.2747461 L13.3150246,18.2747461 L13.3150246,18.2747461 L13.3150246,14.4805267 Z" fill-opacity="0.9" fill="currentColor"></path>
            <path d="M9.23526027,14.4805267 L14.0048172,14.4805267 L14.0048172,14.4805267 L14.0048172,18.2747461 L9.23526027,18.2747461 C8.18751551,18.2747461 7.33815057,17.4253812 7.33815057,16.3776364 C7.33815057,15.3298917 8.18751551,14.4805267 9.23526027,14.4805267 Z" fill-opacity="0.5" fill="currentColor"></path>
            <rect fill-opacity="0.9" fill="currentColor" x="7.33815057" y="21.0869323" width="30.1435407" height="3.7942194" rx="1.8971097"></rect>
            <path d="M9.23526027,27.6486999 L31.5048172,27.6486999 L31.5048172,27.6486999 L31.5048172,31.4429193 L9.23526027,31.4429193 C8.18751551,31.4429193 7.33815057,30.5935544 7.33815057,29.5458096 C7.33815057,28.4980649 8.18751551,27.6486999 9.23526027,27.6486999 Z" fill-opacity="0.9" fill="currentColor"></path>
            <path d="M31.1965791,27.6486999 L35.9661361,27.6486999 C37.0138808,27.6486999 37.8632458,28.4980649 37.8632458,29.5458096 C37.8632458,30.5935544 37.0138808,31.4429193 35.9661361,31.4429193 L31.1965791,31.4429193 L31.1965791,31.4429193 L31.1965791,27.6486999 Z" fill-opacity="0.5" fill="currentColor"></path>
        </g>
    </g>
</svg>
