<svg width="64px" height="64px" viewBox="0 0 64 64" version="1.1" xmlns="http://www.w3.org/2000/svg">
    <g stroke="none" fill="none" fill-rule="evenodd" stroke-width="1">
        <g transform="translate(4, 6.6625)">
            <path d="M11.773069,2.38254659 C11.9164578,2.38254659 12.0568087,2.39570374 12.1930265,2.42090057 L43.8011736,2.42096195 C43.9374953,2.39572511 44.0779576,2.38254659 44.2214627,2.38254659 L48.7819549,2.38254659 C49.7552973,2.38254659 50.7012987,2.57783729 51.5926179,2.96283897 C52.4456596,3.33110144 53.2166781,3.86117621 53.8838004,4.53632407 C54.5454545,5.21147193 55.0649351,5.99821448 55.4313055,6.87423279 C55.8086124,7.78372949 56,8.74902355 56,9.74221627 L56,42.6403303 C56,43.633523 55.8086124,44.5932374 55.4313055,45.5027341 C55.0704033,46.3787524 54.5509228,47.1654949 53.8892686,47.8406428 C53.2221463,48.5213704 52.4511278,49.0514452 51.5926179,49.4197076 C50.7012987,49.8047093 49.7552973,50 48.7819549,50 L7.2125769,50 C6.23923445,50 5.29323308,49.8047093 4.40191388,49.4197076 C3.54887218,49.0514452 2.77785373,48.5213704 2.11073137,47.8462225 C1.44907724,47.1710747 0.929596719,46.3843321 0.563226247,45.5083138 C0.19138756,44.5932374 0,43.6279433 0,42.6403303 L0,9.74221627 C0,8.74902355 0.19138756,7.78930923 0.568694463,6.87981252 C0.929596719,6.00379422 1.44907724,5.21705167 2.11073137,4.54190381 C2.77785373,3.86117621 3.54887218,3.33110144 4.40738209,2.96283897 C5.29323308,2.57783729 6.23923445,2.38254659 7.2125769,2.38254659 L11.773069,2.38254659 Z M44.2191802,7.16437898 L11.9619544,7.16437898 C11.8699748,7.16437898 11.7792182,7.15914228 11.6899665,7.14895077 L7.2125769,7.14763977 C6.86807929,7.14763977 6.53451811,7.21459659 6.2228298,7.34851021 C5.91660971,7.48242384 5.64319891,7.66655507 5.40806562,7.90648365 C5.17293233,8.14641223 4.9924812,8.41981922 4.86124402,8.73228434 C4.73000684,9.0503292 4.66438824,9.390693 4.66438824,9.74221627 L4.66438824,42.6403303 C4.66438824,42.9918536 4.73000684,43.3322174 4.86671224,43.6502622 C4.9924812,43.9571476 5.17840055,44.2361344 5.41353383,44.4760629 C5.64866712,44.7104118 5.91660971,44.9001228 6.2228298,45.0284566 C6.53998633,45.1623703 6.87354751,45.2349068 7.2125769,45.2349068 L48.7819549,45.2349068 C49.1264525,45.2349068 49.4600137,45.16795 49.771702,45.0340364 C50.0779221,44.9001228 50.3513329,44.7159915 50.5864662,44.4760629 C50.8215995,44.2361344 51.0020506,43.9627274 51.1332878,43.6502622 C51.2645249,43.3322174 51.3301435,42.9918536 51.3301435,42.6403303 L51.3301435,9.74221627 C51.3301435,9.390693 51.2645249,9.0503292 51.1278195,8.73228434 C51.0020506,8.42539895 50.8161312,8.14641223 50.5809979,7.90648365 C50.3458647,7.67213481 50.0779221,7.48242384 49.771702,7.35408995 C49.4545455,7.22017632 49.1209843,7.14763977 48.7819549,7.14763977 L44.4911681,7.14895077 C44.4019165,7.15914228 44.3111599,7.16437898 44.2191802,7.16437898 Z" fill="#3688FF"></path>
            <rect fill="#FFFFFF" x="4" y="6.3375" width="48" height="40" rx="4"></rect>
            <path d="M18.6630212,13.0956366 C17.3725222,13.0956366 16.328093,12.0299074 16.328093,10.7130901 L16.328093,2.38254659 C16.328093,1.06572927 17.3725222,0 18.6630212,0 C19.9535202,0 20.9979494,1.07130901 20.9979494,2.38254659 L20.9979494,10.7130901 C20.9979494,12.0299074 19.9535202,13.0956366 18.6630212,13.0956366 Z M37.3315106,13.0956366 C36.0410116,13.0956366 34.9965824,12.0299074 34.9965824,10.7130901 L34.9965824,2.38254659 C34.9965824,1.06572927 36.0410116,0 37.3315106,0 C38.6220096,0 39.6664388,1.06572927 39.6664388,2.38254659 L39.6664388,10.7130901 C39.6609706,12.0299074 38.6165414,13.0956366 37.3315106,13.0956366 Z" fill="#5F6379" fill-rule="nonzero"></path>
            <path d="M16.5698084,18.1006584 L44.2724953,18.1006584 C45.5821763,18.1006584 46.6438824,19.1623646 46.6438824,20.4720455 C46.6438824,21.7817265 45.5821763,22.8434327 44.2724953,22.8434327 L16.5698084,22.8434327 L16.5698084,22.8434327 L16.5698084,18.1006584 Z" fill="#5F6379"></path>
            <path d="M11.5033078,18.1006584 L17.428217,18.1006584 L17.428217,18.1006584 L17.428217,22.8434327 L11.5033078,22.8434327 C10.1936269,22.8434327 9.13192071,21.7817265 9.13192071,20.4720455 C9.13192071,19.1623646 10.1936269,18.1006584 11.5033078,18.1006584 Z" fill-opacity="0.5" fill="#5F6379"></path>
            <rect fill="#5F6379" x="9.13192071" y="26.3586653" width="37.5119617" height="4.74277424" rx="2.37138712"></rect>
            <path d="M11.5033078,34.5608749 L39.2059948,34.5608749 L39.2059948,34.5608749 L39.2059948,39.3036491 L11.5033078,39.3036491 C10.1936269,39.3036491 9.13192071,38.241943 9.13192071,36.932262 C9.13192071,35.6225811 10.1936269,34.5608749 11.5033078,34.5608749 Z" fill="#5F6379"></path>
            <path d="M38.8224096,34.5608749 L44.7473187,34.5608749 C46.0569997,34.5608749 47.1187059,35.6225811 47.1187059,36.932262 C47.1187059,38.241943 46.0569997,39.3036491 44.7473187,39.3036491 L38.8224096,39.3036491 L38.8224096,39.3036491 L38.8224096,34.5608749 Z" fill-opacity="0.5" fill="#5F6379"></path>
        </g>
    </g>
</svg>
