<svg width="64px" height="64px" viewBox="0 0 64 64" xmlns="http://www.w3.org/2000/svg">
    <g stroke="none" fill="none" fill-rule="evenodd" stroke-width="1">
        <g transform="translate(6, 8.6625)">
            <path d="M10.9321355,2.2395938 C12.130456,2.2395938 13.1002832,3.24137931 13.1002832,4.47918759 C13.1002832,5.71699587 12.130456,6.71878139 10.9321355,6.71878139 L6.69739283,6.71878139 C6.3775022,6.71878139 6.06776682,6.78172079 5.77834196,6.9075996 C5.49399473,7.03347841 5.24011327,7.20656177 5.02177522,7.43209463 C4.80343716,7.6576275 4.6358754,7.91463006 4.5140123,8.20834728 C4.3921492,8.50730945 4.33121765,8.82725142 4.33121765,9.15768329 L4.33121765,40.0819105 C4.33121765,40.4123424 4.3921492,40.7322843 4.51908993,41.0312465 C4.6358754,41.3197188 4.80851479,41.5819663 5.02685285,41.8074992 C5.2451909,42.0277871 5.49399473,42.2061154 5.77834196,42.3267492 C6.07284445,42.4526281 6.38257983,42.5208124 6.69739283,42.5208124 L45.2975295,42.5208124 C45.6174202,42.5208124 45.9271556,42.457873 46.2165804,42.3319942 C46.5009276,42.2061154 46.7548091,42.033032 46.9731472,41.8074992 C47.1914852,41.5819663 47.359047,41.3249637 47.4809101,41.0312465 C47.6027732,40.7322843 47.6637047,40.4123424 47.6637047,40.0819105 L47.6637047,9.15768329 C47.6637047,8.82725142 47.6027732,8.50730945 47.4758324,8.20834728 C47.359047,7.91987501 47.1864076,7.6576275 46.9680695,7.43209463 C46.7497315,7.21180672 46.5009276,7.03347841 46.2165804,6.91284455 C45.9220779,6.78696574 45.6123425,6.71878139 45.2975295,6.71878139 L41.0627868,6.71878139 C39.8644664,6.71878139 38.8946392,5.71699587 38.8946392,4.47918759 C38.8946392,3.24137931 39.8644664,2.2395938 41.0627868,2.2395938 L45.2975295,2.2395938 C46.2013475,2.2395938 47.0797774,2.42316706 47.9074309,2.78506863 C48.6995411,3.13123535 49.4154868,3.62950564 50.0349575,4.26414463 C50.6493506,4.89878362 51.1317254,5.63832162 51.4719266,6.46177882 C51.822283,7.31670572 52,8.22408213 52,9.15768329 L52,40.0819105 C52,41.0155117 51.822283,41.9176431 51.4719266,42.77257 C51.136803,43.5960272 50.6544283,44.3355652 50.0400352,44.9702042 C49.4205644,45.6100882 48.7046187,46.1083584 47.9074309,46.4545252 C47.0797774,46.8164267 46.2013475,47 45.2975295,47 L6.69739283,47 C5.79357485,47 4.91514501,46.8164267 4.08749146,46.4545252 C3.29538131,46.1083584 2.5794356,45.6100882 1.95996485,44.9754492 C1.34557172,44.3408102 0.863196953,43.6012722 0.522995801,42.777815 C0.17771702,41.9176431 0,41.0102667 0,40.0819105 L0,9.15768329 C0,8.22408213 0.17771702,7.32195068 0.52807343,6.46702377 C0.863196953,5.64356657 1.34557172,4.90402857 1.95996485,4.26938958 C2.5794356,3.62950564 3.29538131,3.13123535 4.09256909,2.78506863 C4.91514501,2.42316706 5.79357485,2.2395938 6.69739283,2.2395938 L10.9321355,2.2395938 Z M28.0335658,2.27630845 C29.2646659,2.27630845 30.2626697,3.27431226 30.2626697,4.50541234 C30.2626697,5.73651243 29.2646659,6.73451624 28.0335658,6.73451624 L23.6566989,6.73451624 C22.4255988,6.73451624 21.427595,5.73651243 21.427595,4.50541234 C21.427595,3.27431226 22.4255988,2.27630845 23.6566989,2.27630845 L28.0335658,2.27630845 Z" fill="var(--icon-color-accent, #ff8700)"></path>
            <path d="M17.3299482,12.3098984 C16.1316278,12.3098984 15.1618006,11.3081129 15.1618006,10.0703047 L15.1618006,2.2395938 C15.1618006,1.00178552 16.1316278,0 17.3299482,0 C18.5282687,0 19.4980959,1.00703047 19.4980959,2.2395938 L19.4980959,10.0703047 C19.4980959,11.3081129 18.5282687,12.3098984 17.3299482,12.3098984 Z M34.6649741,12.3098984 C33.4666536,12.3098984 32.4968265,11.3081129 32.4968265,10.0703047 L32.4968265,2.2395938 C32.4968265,1.00178552 33.4666536,0 34.6649741,0 C35.8632946,0 36.8331218,1.00178552 36.8331218,2.2395938 L36.8331218,10.0703047 C36.8280441,11.3081129 35.858217,12.3098984 34.6649741,12.3098984 Z" fill="var(--icon-color-accent, #ff8700)" fill-rule="nonzero"></path>
            <path d="M15.3862506,17.0146189 L41.0830727,17.0146189 C42.3141727,17.0146189 43.3121765,18.0126227 43.3121765,19.2437228 C43.3121765,20.4748229 42.3141727,21.4728267 41.0830727,21.4728267 L15.3862506,21.4728267 L15.3862506,21.4728267 L15.3862506,17.0146189 Z" fill-opacity="0.9" fill="currentColor"></path>
            <path d="M10.7087446,17.0146189 L16.1833444,17.0146189 L16.1833444,17.0146189 L16.1833444,21.4728267 L10.7087446,21.4728267 C9.47764447,21.4728267 8.47964066,20.4748229 8.47964066,19.2437228 C8.47964066,18.0126227 9.47764447,17.0146189 10.7087446,17.0146189 Z" fill-opacity="0.5" fill="currentColor"></path>
            <rect fill="currentColor" fill-opacity="0.9" x="8.47964066" y="24.7771454" width="34.8325359" height="4.45820779" rx="2.22910389"></rect>
            <path d="M10.7087446,32.4872224 L36.4055666,32.4872224 L36.4055666,32.4872224 L36.4055666,36.9454302 L10.7087446,36.9454302 C9.47764447,36.9454302 8.47964066,35.9474264 8.47964066,34.7163263 C8.47964066,33.4852262 9.47764447,32.4872224 10.7087446,32.4872224 Z" fill-opacity="0.9" fill="currentColor"></path>
            <path d="M36.0493803,32.4872224 L41.5239801,32.4872224 C42.7550802,32.4872224 43.753084,33.4852262 43.753084,34.7163263 C43.753084,35.9474264 42.7550802,36.9454302 41.5239801,36.9454302 L36.0493803,36.9454302 L36.0493803,36.9454302 L36.0493803,32.4872224 Z" fill-opacity="0.5" fill="currentColor"></path>
        </g>
    </g>
</svg>
