<?xml version="1.0" encoding="UTF-8"?>
<svg width="96px" height="96px" viewBox="0 0 96 96" version="1.1" xmlns="http://www.w3.org/2000/svg" xmlns:xlink="http://www.w3.org/1999/xlink">
    <!-- Generator: Sketch 48.2 (47327) - http://www.bohemiancoding.com/sketch -->
    <title>Registration confirmed</title>
    <desc>Created with Sketch.</desc>
    <defs></defs>
    <g id="Page-1" stroke="none" stroke-width="1" fill="none" fill-rule="evenodd">
        <g id="Registration-confirmed" fill="#666666" fill-rule="nonzero">
            <path d="M90,21.0000132 L90,87.0000044 C90,91.9687754 85.9687746,96 81.0000025,96 L14.9999975,96 C10.0312254,96 6,91.9687754 6,87.0000044 L6,21.0000132 C6,16.0312422 10.0312254,12.0000176 14.9999975,12.0000176 L23.999995,12.0000176 L23.999995,2.2499989 C23.999995,1.01249951 25.0124947,0 26.2499943,0 L33.7500157,0 C34.9875153,0 36.0000151,1.01249951 36.0000151,2.2499989 L36.0000151,12.0000176 L59.9999849,12.0000176 L59.9999849,2.2499989 C59.9999849,1.01249951 61.0124847,0 62.2499843,0 L69.7500057,0 C70.9875053,0 72.000005,1.01249951 72.000005,2.2499989 L72.000005,12.0000176 L81.0000025,12.0000176 C85.9687746,12.0000176 90,16.0312422 90,21.0000132 Z M81.0000025,85.8750049 L81.0000025,30.0000088 L14.9999975,30.0000088 L14.9999975,85.8750049 C14.9999975,86.4937546 15.5062473,87.0000044 16.1249972,87.0000044 L79.8750028,87.0000044 C80.4937527,87.0000044 81.0000025,86.4937546 81.0000025,85.8750049 Z" id="Shape"></path>
            <path d="M41.9254194,76.391161 L28.6004063,62.8805773 C27.7998646,62.0688867 27.7998646,60.7528227 28.6004063,59.941051 L31.4994775,57.0015247 C32.3000193,56.1897529 33.598087,56.1897529 34.3986288,57.0015247 L43.374995,66.102819 L62.6013712,46.6087679 C63.401913,45.7970774 64.6999807,45.7970774 65.5005225,46.6087679 L68.3995937,49.5482942 C69.2001354,50.3599847 69.2001354,51.6760488 68.3995937,52.4878205 L44.8245706,76.3912422 C44.0239488,77.2029328 42.7259612,77.2029328 41.9254194,76.391161 Z" id="Shape"></path>
        </g>
    </g>
</svg>