<?xml version="1.0" encoding="UTF-8"?>
<svg width="96px" height="96px" viewBox="0 0 96 96" version="1.1" xmlns="http://www.w3.org/2000/svg" xmlns:xlink="http://www.w3.org/1999/xlink">
    <!-- Generator: Sketch 48.2 (47327) - http://www.bohemiancoding.com/sketch -->
    <title>Priceoption</title>
    <desc>Created with Sketch.</desc>
    <defs></defs>
    <g id="Page-1" stroke="none" stroke-width="1" fill="none" fill-rule="evenodd">
        <g id="Priceoption" fill="#666666" fill-rule="nonzero">
            <g id="money-bill-alt" transform="translate(0.000000, 19.000000)">
                <path d="M48,11.9060052 C40.04685,11.9060052 33.6,19.3685405 33.6,28.5744125 C33.6,37.7787963 40.04655,45.2428198 48,45.2428198 C55.95,45.2428198 62.4,37.7822193 62.4,28.5744125 C62.4,19.3685405 55.95315,11.9060052 48,11.9060052 Z M55.2,36.3770131 C55.2,37.4897781 54.61245,38.0992167 53.4642,38.0992167 L43.37025,38.0992167 C42.22185,38.0992167 41.6343,37.4897781 41.6343,36.3770131 L41.6343,35.0523211 C41.6343,33.9395561 42.22185,33.3301175 43.37025,33.3301175 L45.6399,33.3301175 L45.6399,27.3952715 C45.6399,26.6268877 45.72,25.8321619 45.72,25.8321619 L45.6666,25.8321619 C45.6666,25.8321619 45.39975,26.2295248 45.2394,26.38847 C44.57175,27.0243995 43.6638,27.0508903 42.8895,26.2295248 L42.0618,25.3021958 C41.2605,24.5073211 41.3142,23.6329739 42.1419,22.8645901 L45.3999,19.8971671 C46.06725,19.2877285 46.6548,19.0493107 47.5629,19.0493107 L49.37865,19.0493107 C50.52705,19.0493107 51.14115,19.6321097 51.14115,20.7715144 L51.14115,33.3299687 L53.46435,33.3299687 C54.6126,33.3299687 55.20015,33.9392585 55.20015,35.0521723 L55.20015,36.3770131 L55.2,36.3770131 Z M92.4,0 L3.6,0 C1.61175,0 0,1.59912533 0,3.57180157 L0,53.4281984 C0,55.4008747 1.61175,57 3.6,57 L92.4,57 C94.38825,57 96,55.4008747 96,53.4281984 L96,3.57180157 C96,1.59912533 94.38825,0 92.4,0 Z M76.8,50.0052219 L19.2,50.0052219 C19.2,43.4296841 13.82745,38.0992167 7.2,38.0992167 L7.2,19.0496084 C13.82745,19.0496084 19.2,13.719141 19.2,7.14360313 L76.8,7.14360313 C76.8,13.719141 82.17255,19.0496084 88.8,19.0496084 L88.8,38.0992167 C82.17255,38.0992167 76.8,43.4296841 76.8,50.0052219 Z" id="Shape"></path>
            </g>
        </g>
    </g>
</svg>