<?xml version="1.0" encoding="UTF-8"?>
<svg width="96px" height="96px" viewBox="0 0 96 96" version="1.1" xmlns="http://www.w3.org/2000/svg" xmlns:xlink="http://www.w3.org/1999/xlink">
    <!-- Generator: Sketch 48.2 (47327) - http://www.bohemiancoding.com/sketch -->
    <title>Registration unconfirmed</title>
    <desc>Created with Sketch.</desc>
    <defs></defs>
    <g id="Page-1" stroke="none" stroke-width="1" fill="none" fill-rule="evenodd">
        <g id="Registration-unconfirmed" fill="#666666" fill-rule="nonzero">
            <path d="M90,21.0000132 L90,87.0000044 C90,91.9687754 85.9687746,96 81.0000025,96 L14.9999975,96 C10.0312254,96 6,91.9687754 6,87.0000044 L6,21.0000132 C6,16.0312422 10.0312254,12.0000176 14.9999975,12.0000176 L23.999995,12.0000176 L23.999995,2.2499989 C23.999995,1.01249951 25.0124947,0 26.2499943,0 L33.7500157,0 C34.9875153,0 36.0000151,1.01249951 36.0000151,2.2499989 L36.0000151,12.0000176 L59.9999849,12.0000176 L59.9999849,2.2499989 C59.9999849,1.01249951 61.0124847,0 62.2499843,0 L69.7500057,0 C70.9875053,0 72.000005,1.01249951 72.000005,2.2499989 L72.000005,12.0000176 L81.0000025,12.0000176 C85.9687746,12.0000176 90,16.0312422 90,21.0000132 Z M81.0000025,85.8750049 L81.0000025,30.0000088 L14.9999975,30.0000088 L14.9999975,85.8750049 C14.9999975,86.4937546 15.5062473,87.0000044 16.1249972,87.0000044 L79.8750028,87.0000044 C80.4937527,87.0000044 81.0000025,86.4937546 81.0000025,85.8750049 Z" id="Shape"></path>
            <path d="M63.7083333,42.84375 L64.03125,42.84375 C64.5662422,42.84375 65,42.4134902 65,41.8828125 L65,39.9609375 C65,39.4302598 64.5662422,39 64.03125,39 L34.96875,39 C34.4337578,39 34,39.4302598 34,39.9609375 L34,41.8828125 C34,42.4134902 34.4337578,42.84375 34.96875,42.84375 L35.2916667,42.84375 C35.2916667,49.2951641 37.8901771,56.1212637 43.1369271,59.5 C37.8668464,62.893791 35.2916667,69.7419922 35.2916667,76.15625 L34.96875,76.15625 C34.4337578,76.15625 34,76.5865098 34,77.1171875 L34,79.0390625 C34,79.5697402 34.4337578,80 34.96875,80 L64.03125,80 C64.5662422,80 65,79.5697402 65,79.0390625 L65,77.1171875 C65,76.5865098 64.5662422,76.15625 64.03125,76.15625 L63.7083333,76.15625 C63.7083333,69.7048359 61.1098229,62.8787363 55.8630729,59.5 C61.1332344,56.106209 63.7083333,49.2580078 63.7083333,42.84375 Z M39.1666667,42.84375 L59.8333333,42.84375 C59.8333333,50.9812891 55.206987,57.578125 49.5,57.578125 C43.793013,57.578125 39.1666667,50.9813691 39.1666667,42.84375 Z M59.8333333,76.15625 L39.1666667,76.15625 C39.1666667,68.0187109 43.7930937,61.421875 49.5,61.421875 C55.2069062,61.421875 59.8333333,68.0187109 59.8333333,76.15625 Z" id="Shape"></path>
        </g>
    </g>
</svg>