<?xml version="1.0" encoding="UTF-8"?>
<svg width="96px" height="96px" viewBox="0 0 96 96" version="1.1" xmlns="http://www.w3.org/2000/svg" xmlns:xlink="http://www.w3.org/1999/xlink">
    <!-- Generator: Sketch 48.2 (47327) - http://www.bohemiancoding.com/sketch -->
    <title>Organisator</title>
    <desc>Created with Sketch.</desc>
    <defs></defs>
    <g id="Page-1" stroke="none" stroke-width="1" fill="none" fill-rule="evenodd">
        <g id="Organisator" fill="#666666" fill-rule="nonzero">
            <path d="M12,53 C12,41.95425 20.954375,33 32,33 C43.045625,33 52,41.95425 52,53 C52,64.04575 43.045625,73 32,73 C20.954375,73 12,64.04575 12,53 Z M50,77 L46.4305,77 C37.55475,82.339125 26.4415,82.336875 17.5695,77 L14,77 C6.268,77 0,83.268 0,91 L0,94 C0,95.656875 1.343125,97 3,97 L61,97 C62.656875,97 64,95.656875 64,94 L64,91 C64,83.268 57.732,77 50,77 Z" id="Shape"></path>
            <path d="M86.4736072,26.8216775 L89.4809391,28.3208816 C90.3822463,28.8384639 90.774895,29.9360954 90.4179416,30.9177171 C89.6237204,33.0772849 88.0620495,35.0583759 86.6163885,36.7895997 C85.9560248,37.5838208 84.8137741,37.7801452 83.9124669,37.2625628 L81.3156313,35.7633588 C79.887818,36.985924 78.2279849,37.9586219 76.4164467,38.592214 L76.4164467,41.5906221 C76.4164467,42.6257868 75.6757685,43.5181702 74.6584515,43.6966469 C72.4631884,44.0714479 70.1608393,44.0892955 67.8852618,43.6966469 C66.8590209,43.5181702 66.100495,42.6347107 66.100495,41.5906221 L66.100495,38.592214 C64.2889568,37.949698 62.6291238,36.985924 61.2013104,35.7633588 L58.6044748,37.253639 C57.7120914,37.7712213 56.5609169,37.574897 55.9005532,36.7806758 C54.4548922,35.0494521 52.9289166,33.068361 52.1346954,30.9177171 C51.7777421,29.9450193 52.1703908,28.8473877 53.071698,28.3208816 L56.0433346,26.8216775 C55.6953051,24.9565963 55.6953051,23.0379721 56.0433346,21.163967 L53.071698,19.6558391 C52.1703908,19.1382568 51.7688183,18.0406252 52.1346954,17.0679274 C52.9289166,14.9083597 54.4548922,12.9272686 55.9005532,11.1960449 C56.5609169,10.4018237 57.7031676,10.2054993 58.6044748,10.7230817 L61.2013104,12.2222857 C62.6291238,10.9997205 64.2889568,10.0270227 66.100495,9.39343049 L66.100495,6.38609856 C66.100495,5.3598577 66.8322494,4.46747434 67.8495664,4.28899766 C70.0448295,3.91419665 72.3561024,3.89634899 74.63168,4.28007383 C75.6579208,4.4585505 76.4164467,5.34201003 76.4164467,6.38609856 L76.4164467,9.38450665 C78.2279849,10.0270227 79.887818,10.9907967 81.3156313,12.2133619 L83.9124669,10.7141579 C84.8048503,10.1965755 85.9560248,10.3928999 86.6163885,11.187121 C88.0620495,12.9183448 89.5791013,14.8994358 90.3733224,17.0590036 C90.7302758,18.0317014 90.3822463,19.1293329 89.4809391,19.6558391 L86.4736072,21.1550432 C86.8216367,23.0290482 86.8216367,24.9476725 86.4736072,26.8216775 Z M75.9791788,28.7046064 C81.2620883,21.8332545 73.4180386,13.9892048 66.5466867,19.2721143 C61.2637772,26.1434662 69.107827,33.9875159 75.9791788,28.7046064 Z" id="Shape"></path>
        </g>
    </g>
</svg>