<?xml version="1.0" encoding="UTF-8"?>
<svg width="96px" height="96px" viewBox="0 0 96 96" version="1.1" xmlns="http://www.w3.org/2000/svg" xmlns:xlink="http://www.w3.org/1999/xlink">
    <!-- Generator: Sketch 48.2 (47327) - http://www.bohemiancoding.com/sketch -->
    <title>Registration Field</title>
    <desc>Created with Sketch.</desc>
    <defs></defs>
    <g id="Page-1" stroke="none" stroke-width="1" fill="none" fill-rule="evenodd">
        <g id="Registration-Field" fill="#666666" fill-rule="nonzero">
            <g id="code" transform="translate(2.000000, 12.000000)">
                <path d="M39.6565503,72.928896 L30.9837903,70.4050734 C30.0738614,70.1484134 29.5620264,69.1930681 29.8179439,68.2804995 L49.2250215,1.23522235 C49.480939,0.322653713 50.4335208,-0.190666146 51.3434497,0.0659937839 L60.0162097,2.58981642 C60.9261386,2.84647635 61.4379736,3.80182165 61.1820561,4.71439029 L41.7749785,71.7596674 C41.5048434,72.6722361 40.5664792,73.1998148 39.6565503,72.928896 Z M23.4484415,56.9304271 L29.6331146,50.3143044 C30.287126,49.6156191 30.2444731,48.503426 29.5193735,47.8617762 L16.6381923,36.4974449 L29.5193735,25.1331136 C30.2444731,24.4914637 30.3013436,23.3792707 29.6331146,22.6805854 L23.4484415,16.0644627 C22.8086478,15.3800362 21.7281072,15.3372596 21.0314429,15.9931683 L0.543824701,35.242663 C-0.1812749,35.9128306 -0.1812749,37.0678003 0.543824701,37.7379679 L21.0314429,57.0017215 C21.7281072,57.6576302 22.8086478,57.6291124 23.4484415,56.9304271 Z M69.9685571,57.0159804 L90.4561753,37.7522268 C91.1812749,37.0820592 91.1812749,35.9270895 90.4561753,35.2569219 L69.9685571,15.9789094 C69.2861105,15.3372596 68.2055699,15.3657774 67.5515585,16.0502038 L61.3668854,22.6663265 C60.712874,23.3650118 60.7555269,24.4772049 61.4806265,25.1188547 L74.3618077,36.4974449 L61.4806265,47.8617762 C60.7555269,48.503426 60.6986564,49.6156191 61.3668854,50.3143044 L67.5515585,56.9304271 C68.1913522,57.6291124 69.2718928,57.6576302 69.9685571,57.0159804 Z" id="Shape"></path>
            </g>
        </g>
    </g>
</svg>