<?xml version="1.0" encoding="UTF-8"?>
<svg width="96px" height="96px" viewBox="0 0 96 96" version="1.1" xmlns="http://www.w3.org/2000/svg" xmlns:xlink="http://www.w3.org/1999/xlink">
    <!-- Generator: Sketch 48.2 (47327) - http://www.bohemiancoding.com/sketch -->
    <title>Event</title>
    <desc>Created with Sketch.</desc>
    <defs></defs>
    <g id="Page-1" stroke="none" stroke-width="1" fill="none" fill-rule="evenodd">
        <g id="Event" fill="#666666" fill-rule="nonzero">
            <g id="Calendar" transform="translate(6.000000, 0.000000)">
                <path d="M27.7500157,53.9999736 L20.2499943,53.9999736 C19.0124947,53.9999736 17.999995,52.9874741 17.999995,51.7499747 L17.999995,44.249955 C17.999995,43.0124556 19.0124947,41.9999561 20.2499943,41.9999561 L27.7500157,41.9999561 C28.9875153,41.9999561 30.0000151,43.0124556 30.0000151,44.249955 L30.0000151,51.7499747 C30.0000151,52.9874741 28.9875153,53.9999736 27.7500157,53.9999736 Z M48.00001,51.7499747 L48.00001,44.249955 C48.00001,43.0124556 46.9875103,41.9999561 45.7500107,41.9999561 L38.2499893,41.9999561 C37.0124897,41.9999561 35.99999,43.0124556 35.99999,44.249955 L35.99999,51.7499747 C35.99999,52.9874741 37.0124897,53.9999736 38.2499893,53.9999736 L45.7500107,53.9999736 C46.9875103,53.9999736 48.00001,52.9874741 48.00001,51.7499747 Z M66.000005,51.7499747 L66.000005,44.249955 C66.000005,43.0124556 64.9875053,41.9999561 63.7500057,41.9999561 L56.2499843,41.9999561 C55.0124847,41.9999561 53.9999849,43.0124556 53.9999849,44.249955 L53.9999849,51.7499747 C53.9999849,52.9874741 55.0124847,53.9999736 56.2499843,53.9999736 L63.7500057,53.9999736 C64.9875053,53.9999736 66.000005,52.9874741 66.000005,51.7499747 Z M48.00001,69.7499659 L48.00001,62.2499462 C48.00001,61.0124468 46.9875103,59.9999473 45.7500107,59.9999473 L38.2499893,59.9999473 C37.0124897,59.9999473 35.99999,61.0124468 35.99999,62.2499462 L35.99999,69.7499659 C35.99999,70.9874653 37.0124897,71.9999648 38.2499893,71.9999648 L45.7500107,71.9999648 C46.9875103,71.9999648 48.00001,70.9874653 48.00001,69.7499659 Z M30.0000151,69.7499659 L30.0000151,62.2499462 C30.0000151,61.0124468 28.9875153,59.9999473 27.7500157,59.9999473 L20.2499943,59.9999473 C19.0124947,59.9999473 17.999995,61.0124468 17.999995,62.2499462 L17.999995,69.7499659 C17.999995,70.9874653 19.0124947,71.9999648 20.2499943,71.9999648 L27.7500157,71.9999648 C28.9875153,71.9999648 30.0000151,70.9874653 30.0000151,69.7499659 Z M66.000005,69.7499659 L66.000005,62.2499462 C66.000005,61.0124468 64.9875053,59.9999473 63.7500057,59.9999473 L56.2499843,59.9999473 C55.0124847,59.9999473 53.9999849,61.0124468 53.9999849,62.2499462 L53.9999849,69.7499659 C53.9999849,70.9874653 55.0124847,71.9999648 56.2499843,71.9999648 L63.7500057,71.9999648 C64.9875053,71.9999648 66.000005,70.9874653 66.000005,69.7499659 Z M84,21.0000132 L84,87.0000044 C84,91.9687754 79.9687746,96 75.0000025,96 L8.99999749,96 C4.03122544,96 0,91.9687754 0,87.0000044 L0,21.0000132 C0,16.0312422 4.03122544,12.0000176 8.99999749,12.0000176 L17.999995,12.0000176 L17.999995,2.2499989 C17.999995,1.01249951 19.0124947,0 20.2499943,0 L27.7500157,0 C28.9875153,0 30.0000151,1.01249951 30.0000151,2.2499989 L30.0000151,12.0000176 L53.9999849,12.0000176 L53.9999849,2.2499989 C53.9999849,1.01249951 55.0124847,0 56.2499843,0 L63.7500057,0 C64.9875053,0 66.000005,1.01249951 66.000005,2.2499989 L66.000005,12.0000176 L75.0000025,12.0000176 C79.9687746,12.0000176 84,16.0312422 84,21.0000132 Z M75.0000025,85.8750049 L75.0000025,30.0000088 L8.99999749,30.0000088 L8.99999749,85.8750049 C8.99999749,86.4937546 9.50624735,87.0000044 10.1249972,87.0000044 L73.8750028,87.0000044 C74.4937527,87.0000044 75.0000025,86.4937546 75.0000025,85.8750049 Z" id="Shape"></path>
            </g>
        </g>
    </g>
</svg>