<?xml version="1.0" encoding="UTF-8"?>
<svg width="96px" height="96px" viewBox="0 0 96 96" version="1.1" xmlns="http://www.w3.org/2000/svg" xmlns:xlink="http://www.w3.org/1999/xlink">
    <!-- Generator: Sketch 48.2 (47327) - http://www.bohemiancoding.com/sketch -->
    <title>Speaker</title>
    <desc>Created with Sketch.</desc>
    <defs></defs>
    <g id="Page-1" stroke="none" stroke-width="1" fill="none" fill-rule="evenodd">
        <g id="Speaker" fill="#666666" fill-rule="nonzero">
            <path d="M71.1383915,0 C58.9167485,0 49.0010759,7.15619473 49.0010759,15.9880613 C49.0010759,19.7775392 50.8227925,23.2518679 53.8666734,25.9959727 C53.1979419,27.786943 52.1679418,28.5094804 51.0149567,29.3088835 C50.1617476,29.9007492 48.5398818,30.8231373 49.1240609,32.6294808 C49.5160759,33.8132123 50.7305536,34.5280631 52.0526433,34.4204511 C56.487793,34.066869 60.6001068,32.9446301 64.1205549,31.1536598 C66.3265999,31.6840329 68.6863763,31.9761225 71.1307049,31.9761225 C83.3600344,31.9761225 93.2680205,24.8276144 93.2680205,15.9880613 C93.2757071,7.15619473 83.367721,0 71.1383915,0 Z M71.1383915,28.2865699 C68.6402569,28.2865699 66.111376,27.9483609 63.6593609,27.2104504 C61.1765994,28.6708983 57.6100319,30.7462717 53.3055539,31.3611971 C55.7652556,29.5164208 57.6715245,26.6262713 58.0097335,24.5662711 C55.0811511,22.5677634 52.6906285,19.5776885 52.6906285,15.9880613 C52.6906285,10.5382846 59.3241366,3.6895526 71.1383915,3.6895526 C82.9526463,3.6895526 89.5861545,10.5382846 89.5861545,15.9880613 C89.5861545,21.4455245 82.9526463,28.2865699 71.1383915,28.2865699 Z M66.218988,15.9880613 C66.218988,18.0250018 64.5663759,19.6776139 62.5294354,19.6776139 C60.4924949,19.6776139 58.8398828,18.0250018 58.8398828,15.9880613 C58.8398828,13.9511208 60.4924949,12.2985087 62.5294354,12.2985087 C64.5663759,12.2985087 66.218988,13.9511208 66.218988,15.9880613 Z M74.8279441,15.9880613 C74.8279441,18.0250018 73.175332,19.6776139 71.1383915,19.6776139 C69.101451,19.6776139 67.4488389,18.0250018 67.4488389,15.9880613 C67.4488389,13.9511208 69.101451,12.2985087 71.1383915,12.2985087 C73.175332,12.2985087 74.8279441,13.9511208 74.8279441,15.9880613 Z M83.4369001,15.9880613 C83.4369001,18.0250018 81.784288,19.6776139 79.7473475,19.6776139 C77.710407,19.6776139 76.0577949,18.0250018 76.0577949,15.9880613 C76.0577949,13.9511208 77.710407,12.2985087 79.7473475,12.2985087 C81.784288,12.2985087 83.4369001,13.9511208 83.4369001,15.9880613 Z" id="Shape"></path>
            <path d="M12,53 C12,41.95425 20.954375,33 32,33 C43.045625,33 52,41.95425 52,53 C52,64.04575 43.045625,73 32,73 C20.954375,73 12,64.04575 12,53 Z M50,77 L46.4305,77 C37.55475,82.339125 26.4415,82.336875 17.5695,77 L14,77 C6.268,77 0,83.268 0,91 L0,94 C0,95.656875 1.343125,97 3,97 L61,97 C62.656875,97 64,95.656875 64,94 L64,91 C64,83.268 57.732,77 50,77 Z" id="Shape"></path>
        </g>
    </g>
</svg>